<svg xmlns="http://www.w3.org/2000/svg" xmlns:xlink="http://www.w3.org/1999/xlink" preserveAspectRatio="xMidYMid" width="24" height="32" viewBox="0 0 24 32">
  <defs>
    <style>
      .cls-1 {
        fill: #000;
        fill-rule: evenodd;
      }
    </style>
  </defs>
  <path d="M23.000,6.000 L22.000,6.000 L22.000,31.000 C22.000,31.552 21.553,32.000 21.000,32.000 L3.000,32.000 C2.449,32.000 2.000,31.552 2.000,31.000 L2.000,6.000 L1.000,6.000 C0.449,6.000 0.000,5.552 0.000,5.000 C0.000,4.448 0.449,4.000 1.000,4.000 L7.500,4.000 L7.500,1.000 C7.500,0.448 7.949,0.000 8.500,0.000 L15.500,0.000 C16.053,0.000 16.500,0.448 16.500,1.000 L16.500,4.000 L23.000,4.000 C23.553,4.000 24.000,4.448 24.000,5.000 C24.000,5.552 23.553,6.000 23.000,6.000 ZM14.500,2.000 L9.500,2.000 L9.500,4.000 L14.500,4.000 L14.500,2.000 ZM20.000,6.000 L4.000,6.000 L4.000,30.000 L20.000,30.000 L20.000,6.000 ZM9.000,9.000 C9.553,9.000 10.000,9.448 10.000,10.000 L10.000,27.000 C10.000,27.552 9.553,28.000 9.000,28.000 C8.448,28.000 8.000,27.552 8.000,27.000 L8.000,10.000 C8.000,9.448 8.448,9.000 9.000,9.000 ZM15.000,9.000 C15.553,9.000 16.000,9.448 16.000,10.000 L16.000,27.000 C16.000,27.552 15.553,28.000 15.000,28.000 C14.448,28.000 14.000,27.552 14.000,27.000 L14.000,10.000 C14.000,9.448 14.448,9.000 15.000,9.000 Z" class="cls-1"/>
</svg>
